<svg xmlns="http://www.w3.org/2000/svg" width="212" height="32.128"><g data-name="Group 2"><path data-name="Path 17" d="M39.039 15.737l-.105-.106L23.279 0H6.621l.617.5a1.274 1.274 0 01.143.137 1.3 1.3 0 01.2 1.719l-.012.017-.3.3a1.085 1.085 0 00-.358.945 1.076 1.076 0 001.12.943 1.07 1.07 0 00.721-.312l.35-.346.008-.012a1.331 1.331 0 011.821.271 1.337 1.337 0 01.274 1.816l-.014.006v.008l-.3.3a1.083 1.083 0 00-.364.81 1.082 1.082 0 001.083 1.081 1.076 1.076 0 00.767-.316l.348-.35.07-.068a1.384 1.384 0 011.756.328 1.37 1.37 0 01.321 1.76l-.368.365a1.084 1.084 0 00-.364.812 1.081 1.081 0 001.082 1.08 1.083 1.083 0 00.766-.313l.4-.4a1.359 1.359 0 011.779.308 1.334 1.334 0 01.272 1.814l-.014.012h.007l-.316.317a1.078 1.078 0 00-.364.812 1.082 1.082 0 001.081 1.081 1.078 1.078 0 00.352-.059.859.859 0 00.389-.284 1.594 1.594 0 011.256-.613 1.591 1.591 0 011.531 1.158 1.467 1.467 0 01.044.208v.009c0 .03.008.061.01.091v.228c0 .03-.008.079-.012.108v.008a1.476 1.476 0 01-.044.208 1.591 1.591 0 01-1.531 1.157 1.6 1.6 0 01-1.256-.613.853.853 0 00-.389-.284 1.06 1.06 0 00-.352-.06 1.082 1.082 0 00-1.081 1.081 1.078 1.078 0 00.364.812l.316.317h-.007l.014.012a1.335 1.335 0 01-.272 1.815 1.359 1.359 0 01-1.779.307l-.4-.4a1.086 1.086 0 00-.766-.313 1.081 1.081 0 00-1.082 1.08 1.085 1.085 0 00.364.812l.368.364a1.371 1.371 0 01-.321 1.76 1.384 1.384 0 01-1.756.328l-.07-.068-.348-.35a1.075 1.075 0 00-.767-.315 1.081 1.081 0 00-1.083 1.08 1.083 1.083 0 00.364.81l.3.3v.008l.014.006a1.337 1.337 0 01-.274 1.817 1.331 1.331 0 01-1.821.27l-.008-.012-.35-.345a1.07 1.07 0 00-.721-.312 1.076 1.076 0 00-1.12.943 1.087 1.087 0 00.358.946l.3.3.012.017a1.3 1.3 0 01-.2 1.719 1.216 1.216 0 01-.143.137l-.617.5h16.658l15.655-15.631.105-.106a.461.461 0 00.136-.327.462.462 0 00-.136-.327M13.756 6.394a1.252 1.252 0 01-1.251-1.252 1.25 1.25 0 011.251-1.251 1.249 1.249 0 011.252 1.251 1.251 1.251 0 01-1.252 1.252m3.652 3.611a1.254 1.254 0 01-1.253-1.25 1.252 1.252 0 011.253-1.253 1.251 1.251 0 011.253 1.253 1.253 1.253 0 01-1.253 1.25m1.009-3.941a.854.854 0 01-.852-.852.852.852 0 01.852-.851.852.852 0 01.853.851.854.854 0 01-.853.852m-4.661 22.142a1.25 1.25 0 01-1.251-1.251 1.252 1.252 0 011.251-1.252 1.251 1.251 0 011.252 1.252 1.249 1.249 0 01-1.252 1.251m2.4-4.864a1.254 1.254 0 011.253-1.25 1.253 1.253 0 011.253 1.25 1.251 1.251 0 01-1.253 1.254 1.253 1.253 0 01-1.253-1.254m2.262 4.395a.852.852 0 01-.852-.851.853.853 0 01.852-.852.853.853 0 01.853.852.852.852 0 01-.853.851m2.713-13.981a1.254 1.254 0 01-1.254-1.247 1.252 1.252 0 011.254-1.25 1.25 1.25 0 011.252 1.25 1.251 1.251 0 01-1.252 1.247m-1.254 5.834a1.254 1.254 0 011.254-1.247 1.251 1.251 0 011.252 1.247 1.249 1.249 0 01-1.252 1.25 1.252 1.252 0 01-1.254-1.25m2.228 4.5a.851.851 0 01-.853-.851.853.853 0 01.853-.852.852.852 0 01.853.852.85.85 0 01-.853.851m0-14.38a.853.853 0 01-.853-.852.851.851 0 01.853-.851.85.85 0 01.853.851.852.852 0 01-.853.852m1.392 6.338a1.25 1.25 0 011.248-1.217 1.251 1.251 0 011.253 1.217 1.251 1.251 0 01-1.259 1.231 1.25 1.25 0 01-1.248-1.217m2.26 4.393a.853.853 0 01-.854-.853.851.851 0 01.854-.848.85.85 0 01.851.848.853.853 0 01-.851.853m0-7.086a.851.851 0 01-.854-.848.853.853 0 01.854-.853.853.853 0 01.851.853.85.85 0 01-.851.848m4.712 2.692v.103a.52.52 0 01-.01.065c0 .014-.007.028-.01.042l-.007.027a.864.864 0 01-.084.2.853.853 0 01-.817.414.853.853 0 01-.648-.414.828.828 0 01-.1-.27v-.025c0-.02-.006-.04-.008-.061s0-.024 0-.037v-.119c0-.013 0-.041.008-.061V15.9a.833.833 0 01.1-.27.853.853 0 01.648-.414.854.854 0 01.817.414.879.879 0 01.084.2l.007.027c0 .014.008.028.01.042a.52.52 0 01.01.065v.103z" fill="#eca706"/><path data-name="Path 18" d="M5.025 28.275A1.143 1.143 0 003.88 29.42a1.141 1.141 0 001.145 1.144 1.142 1.142 0 001.146-1.144 1.144 1.144 0 00-1.146-1.145M.851 1.975a.852.852 0 00-.85.858.855.855 0 00.85.85.855.855 0 00.852-.85.853.853 0 00-.852-.858m3.652 24.543a.85.85 0 00.852-.846.853.853 0 00-.852-.853.853.853 0 00-.853.853.85.85 0 00.853.846M.851 28.445a.854.854 0 00-.85.85.851.851 0 00.85.856.852.852 0 00.852-.856.854.854 0 00-.852-.85m7.3-17.487a.858.858 0 00.854-.855.855.855 0 00-.854-.85.852.852 0 00-.848.85.854.854 0 00.848.855m8.018 4.01a1.146 1.146 0 001.148-1.148 1.146 1.146 0 00-1.148-1.146 1.146 1.146 0 00-1.145 1.146 1.146 1.146 0 001.145 1.148m-4.294-.311a.852.852 0 00.852-.849.854.854 0 00-.852-.855.853.853 0 00-.851.855.85.85 0 00.851.849M4.501 7.306a.851.851 0 00.852-.852.85.85 0 00-.852-.847.851.851 0 00-.853.847.852.852 0 00.853.852m7.931 13.545a1.151 1.151 0 00-1.147 1.15 1.148 1.148 0 001.147 1.145 1.146 1.146 0 001.147-1.145 1.149 1.149 0 00-1.147-1.15M5.023 1.562a1.141 1.141 0 00-1.145 1.143 1.145 1.145 0 001.145 1.147 1.145 1.145 0 001.146-1.147 1.141 1.141 0 00-1.146-1.143m7.409 7.417a1.146 1.146 0 00-1.147 1.143 1.151 1.151 0 001.147 1.15 1.149 1.149 0 001.147-1.15 1.145 1.145 0 00-1.147-1.143m3.738 8.177a1.146 1.146 0 00-1.145 1.148 1.146 1.146 0 001.145 1.145 1.146 1.146 0 001.148-1.145 1.146 1.146 0 00-1.148-1.148m-3.442 1.16a.851.851 0 00-.852-.848.849.849 0 00-.851.848.852.852 0 00.851.854.853.853 0 00.852-.854M8.745 5.261a1.143 1.143 0 00-1.146 1.146 1.148 1.148 0 001.146 1.148 1.149 1.149 0 001.148-1.148 1.145 1.145 0 00-1.148-1.146m.261 16.76a.858.858 0 00-.854-.855.854.854 0 00-.848.855.852.852 0 00.848.85.855.855 0 00.854-.85m-.261 2.547a1.148 1.148 0 00-1.146 1.148 1.143 1.143 0 001.146 1.146 1.145 1.145 0 001.148-1.146 1.149 1.149 0 00-1.148-1.148" fill="#eca706"/><path data-name="Path 19" d="M66.312 15.021a5.311 5.311 0 01-2.863.59H52.102V8.858h10.767a7.32 7.32 0 013.465.542 2.254 2.254 0 01.859 2.062v1.593a2.2 2.2 0 01-.881 1.965M49.731 6.9v17.629h2.372v-6.96h11.539a4.65 4.65 0 012.559.5 3 3 0 01.918 2.583v3.876h2.224v-4.507a3.313 3.313 0 00-.6-2.092 3.915 3.915 0 00-2.393-1.255 3.991 3.991 0 002.294-.821 3.177 3.177 0 00.919-2.534v-1.425q0-2.728-1.039-3.765-1.228-1.231-4.8-1.23h-13.99" fill="#fff"/><path data-name="Path 20" d="M84.131 19.059a1.473 1.473 0 011.026 1.556v.578a1.421 1.421 0 01-1.112 1.477 16.348 16.348 0 01-4.1.339h-2.752a5.6 5.6 0 01-2.7-.422 1.716 1.716 0 01-.625-1.535v-.408a1.6 1.6 0 01.711-1.533 6.172 6.172 0 012.716-.4h3.185a13.031 13.031 0 013.66.348m-.267 5.367a2.279 2.279 0 001.293-1.156v1.258h2.078v-8.323a3.665 3.665 0 00-1.787-3.545 10.659 10.659 0 00-4.684-.75h-3.285a7.818 7.818 0 00-3.974.739 2.664 2.664 0 00-1.172 2.448v.6h2.069v-.434a1.312 1.312 0 01.58-1.208 5.183 5.183 0 012.535-.434h3.041a9.453 9.453 0 013.584.467 2.042 2.042 0 011 2.063l-.048 2.338a2.635 2.635 0 00-1.438-1.2 10.645 10.645 0 00-2.958-.288h-3.333a11.166 11.166 0 00-4.177.533 2.592 2.592 0 00-1.424 2.628v.845a3.957 3.957 0 00.8 2.752 4.272 4.272 0 003.164.966h4.975a11.175 11.175 0 003.152-.3" fill="#fff"/><path data-name="Path 21" d="M87.866 12.105l6.952 12.424h2.459l6.967-12.424h-2.2l-6 10.758-5.987-10.758z" fill="#fff"/><path data-name="Path 22" d="M118.015 14.419a2.042 2.042 0 01.892 1.734v.815h-11.62q0-2.093.856-2.72a6.3 6.3 0 013.4-.624h3.044a5.948 5.948 0 013.43.794m-10.9-1.683q-1.908 1.154-1.909 4.2v2.7a5.262 5.262 0 001.137 3.643q1.328 1.447 4.664 1.452h3.772a10.241 10.241 0 004.562-.772 3.038 3.038 0 001.645-2.921v-.265h-2.081a1.9 1.9 0 01-.917 1.861 7.164 7.164 0 01-2.873.385h-2.851a7.33 7.33 0 01-3.888-.738 3.174 3.174 0 01-1.088-2.818v-.772h13.7v-1.4c0-2.071-.609-3.525-1.814-4.36a8.131 8.131 0 00-4.588-1.014h-3.334a8.19 8.19 0 00-4.135.825" fill="#fff"/><path data-name="Path 23" d="M123.433 12.103v12.425h2.079v-7.067a3.4 3.4 0 011.2-3.041q1.2-.8 4.771-.8h.53q2.824 0 3.785.818a2.732 2.732 0 01.752 2.2v7.89h2.082v-8.395a3.948 3.948 0 00-1.114-2.967 5.546 5.546 0 00-4.009-1.255h-3.113a8.67 8.67 0 00-3.262.5 3.3 3.3 0 00-1.76 1.846v-2.15z" fill="#fff"/><path data-name="Path 24" d="M157.904 9.422a2.36 2.36 0 01.769 2.032v1.659a2.26 2.26 0 01-.757 1.911 3.618 3.618 0 01-2.234.586h-11.653V8.857h11.463a4.133 4.133 0 012.413.565M141.655 6.9v17.628h2.374v-6.955h11.564q3.573 0 4.658-1.47.8-1.082.8-4.409 0-2.911-1.3-3.95a6.106 6.106 0 00-3.7-.842h-14.394" fill="#fff"/><path data-name="Path 25" d="M174.003 19.059a1.476 1.476 0 011.027 1.556v.578a1.417 1.417 0 01-1.11 1.477 16.392 16.392 0 01-4.107.339h-2.75a5.586 5.586 0 01-2.7-.422 1.722 1.722 0 01-.627-1.535v-.408a1.594 1.594 0 01.714-1.533 6.139 6.139 0 012.71-.4h3.19a12.981 12.981 0 013.654.348m-.266 5.367a2.285 2.285 0 001.293-1.156v1.258h2.081v-8.323a3.671 3.671 0 00-1.79-3.545 10.625 10.625 0 00-4.68-.75h-3.281a7.831 7.831 0 00-3.978.739 2.667 2.667 0 00-1.171 2.448v.6h2.08v-.434a1.313 1.313 0 01.576-1.208 5.2 5.2 0 012.536-.434h3.038a9.484 9.484 0 013.59.467 2.042 2.042 0 011 2.063l-.046 2.338a2.644 2.644 0 00-1.434-1.2 10.687 10.687 0 00-2.96-.288h-3.331a11.159 11.159 0 00-4.179.533 2.59 2.59 0 00-1.425 2.628v.845a3.923 3.923 0 00.8 2.752 4.267 4.267 0 003.165.966h4.973a11.148 11.148 0 003.148-.3" fill="#fff"/><path data-name="Path 26" d="M181.304 12.735q-1.938 1.155-1.934 4.2v2.773q0 2.989 1.887 4.216a5.967 5.967 0 003.28.8h4.683a6.7 6.7 0 004.155-1.012 4.08 4.08 0 001.263-3.355V20H192.7v.406a2.24 2.24 0 01-1.063 2.07 4.781 4.781 0 01-2.487.532h-3.5a5.478 5.478 0 01-3.045-.675 3.054 3.054 0 01-1.156-2.721v-2.609a3.714 3.714 0 01.672-2.439q.794-.936 3.114-.937h3.82a4.875 4.875 0 012.572.543 2.21 2.21 0 01.848 2.015v.289h1.941v-.338a3.848 3.848 0 00-1.3-3.135 6.29 6.29 0 00-4.092-1.088h-3.476a8.515 8.515 0 00-4.248.823" fill="#fff"/><path data-name="Path 27" d="M196.828 6.901V24.53h2.078v-6.009h.889l8.925 5.987 3.222.021.055-.052-10.119-6.824 8.5-5.5-.052-.054h-3.232l-7.164 4.718-1.022-.013V6.895z" fill="#fff"/></g></svg>